PathFileType	4	(X/Y/Z)	S00_P01_T02_Participants1-2_P1_0-100.trc
DataRate	CameraRate	NumFrames	NumMarkers	Units	OrigDataRate	OrigDataStartFrame	OrigNumFrames
60	60	8	21	m	60	0	100
Frame#	Time	RHip			RKnee			RAnkle			RBigToe			RSmallToe			RHeel			LHip			LKnee			LAnkle			LBigToe			LSmallToe			LHeel			Neck			Head			Nose			RShoulder			RElbow			RWrist			LShoulder			LElbow			LWrist		
		X1	Y1	Z1	X2	Y2	Z2	X3	Y3	Z3	X4	Y4	Z4	X5	Y5	Z5	X6	Y6	Z6	X7	Y7	Z7	X8	Y8	Z8	X9	Y9	Z9	X10	Y10	Z10	X11	Y11	Z11	X12	Y12	Z12	X13	Y13	Z13	X14	Y14	Z14	X15	Y15	Z15	X16	Y16	Z16	X17	Y17	Z17	X18	Y18	Z18	X19	Y19	Z19	X20	Y20	Z20	X21	Y21	Z21
1	0.0166666666666666	-1.051023730075934	0.9361947580789575	-0.9743467765585023	-0.8758380369097841	0.9255623796251162	-0.731280024978994	-0.8709628362113446	0.8972285238642083	-0.9648634583483325	-0.7711098585715859	0.8914345998749722	-1.0386046071917157	-0.7938711436394603	0.870947742214517	-1.033473888395212	-0.8911624279931143	0.9025954658399451	-1.0082785004287529	-1.0515753724096095	0.9368099719251302	-1.1185269283817205	-0.8780176411506262	0.9280431764086818	-1.3567345647276192	-0.8897191725036133	0.9059841211040219	-1.1238636369961321	-0.7892085635674669	0.8977721898453496	-1.0578991468689087	-0.8129405166119846	0.8779802028333237	-1.0617778499977495	-0.9115339515696167	0.9126268381686606	-1.0792815751219638	-1.0727268365008593	1.3461900113450493	-1.0457897788370125	-1.0379603398708668	1.5037024229714755	-1.0581692655598098	-0.9874821744414618	1.4093474607060394	-1.0444348333580757	-1.0799464713938516	1.2931206109398328	-0.9138415243174712	-1.0413488538494515	1.1194602608979072	-0.8283624909265161	-0.8903600737111413	1.030934311894519	-0.9114497602754063	-1.0808611731779714	1.2941872329894732	-1.1782826979702559	-1.0443948685623918	1.1218231537617087	-1.2646224841819442	-0.905013385833584	1.0510400909193702	-1.1430137875985353
2	0.0333333333333333	-1.0510294522287078	0.9398000323276711	-0.9743412032725042	-0.8758451183501867	0.9291668417264434	-0.7312677810361256	-0.8723978296891892	0.9014631604441935	-0.9649356343412386	-0.7729786475323865	0.8957708050882017	-1.0392728927913224	-0.7957273406340417	0.8752903553087118	-1.0340633821786633	-0.8928349437237507	0.9069575243689921	-1.0082216885629007	-1.0515803791139844	0.9404149030029609	-1.1185215792795706	-0.8780205606374787	0.9316466617787974	-1.3567260265389656	-0.8897235182793092	0.909588248167406	-1.1238549954343244	-0.7892131401924164	0.9013760715967639	-1.0578878660463595	-0.8129451096554489	0.8815839870859445	-1.0617671646841575	-0.9115386392050876	0.9162311885816894	-1.0792731776855224	-1.0724057075240085	1.3498773787358636	-1.045558562140296	-1.0379777108724528	1.5073005476706256	-1.0581773554002434	-0.9874918497249717	1.4129560487196522	-1.044424787076878	-1.0834052894434774	1.2960015346693319	-0.9163477524302434	-1.0410841063273761	1.1218848533588937	-0.8305292998870271	-0.8887027940767547	1.035570327991694	-0.9133160856945813	-1.0808676252590252	1.2977952996090636	-1.1782719080862534	-1.0443997043305269	1.1254291305127553	-1.264613949858061	-0.9052025052999642	1.0567078849507967	-1.1414361718216715
3	0.05	-1.0510351203869521	0.9433701909133672	-0.9743356796922612	-0.8758521311970162	0.9327361948573696	-0.7312556634918468	-0.8738187415580804	0.905657036368346	-0.9650035754853761	-0.7748302887840621	0.9000659171733654	-1.0399301482886534	-0.797566353276783	0.8795917402396767	-1.0346426316854684	-0.8944907513549246	0.9112775340427032	-1.0081612857489939	-1.0515853390205194	0.943984721497989	-1.1185162721315693	-0.8780234522572344	0.93521504743162	-1.3567175569168828	-0.8897278220465357	0.9131572697505962	-1.123846432337836	-0.7892176717338653	0.9049448498858083	-1.0578766940358757	-0.8129496573749629	0.8851526688887179	-1.0617565819765884	-0.911543281737041	0.9198004314867133	-1.0792648572549801	-1.0723123471954625	1.3534754854214839	-1.0454805580942788	-1.0379949105579946	1.5108636179085904	-1.0581853500352139	-0.9874832636022444	1.4165338080319112	-1.0444005498039992	-1.0870706717233098	1.29880300479017	-0.9190055270270224	-1.040823529515315	1.1242954006466264	-0.8326793570193587	-0.8870711671986311	1.040165052077743	-0.915148587664003	-1.0808740242360075	1.3013682231374792	-1.1782611917938368	-1.0444044986357808	1.1289999841302933	-1.2646054739973378	-0.9053981110563493	1.062324866343381	-1.139881196883247
4	0.0666666666666666	-1.0510407036155878	0.9468848180233862	-0.9743302335422699	-0.8758590356863064	0.9362500268068314	-0.7312437475658242	-0.8752173466654757	0.9097865658431049	-0.9650639629858777	-0.7766550516305497	0.9042963152800803	-1.0405688591034086	-0.7993783910443312	0.8838281799903821	-1.035204584361714	-0.8961200207084364	0.9155311475865631	-1.0080942003008457	-1.051590225436113	0.9474990133233043	-1.1185110287878508	-0.878026299983206	0.9387279264643832	-1.3567091921076515	-0.8897320594920646	0.9166707757199136	-1.1238379918913204	-0.7892221318860673	0.9084581156627543	-1.057865693815959	-0.8129541333054868	0.8886658397957917	-1.0617461611439736	-0.9115478531096836	0.9233141556072035	-1.0792566573904132	-1.0727124201130505	1.3569007006128762	-1.0457345128735063	-1.0380118388264694	1.514371251406482	-1.0581931900328032	-0.9874407787026049	1.4200640132848494	-1.0443499159966623	-1.0907061117301604	1.3015538110622231	-0.9216435552268696	-1.0405699414459166	1.1266860731131723	-0.8348039031417138	-0.8854824471291196	1.0446951018525215	-0.9169238393407171	-1.080880341651998	1.304885571754778	-1.178250584108537	-1.044409228787777	1.1325152943025936	-1.2645970844914602	-0.9056059842978912	1.0678624817584148	-1.138363845316735
5	0.0833333333333333	-1.0510461708857348	0.9503238385350286	-0.9743248937131441	-0.8758657925974498	0.9396882664449359	-0.7312321046006254	-0.876585584834216	0.9138283738021333	-0.9651148303877888	-0.7784429664168079	0.9084383477763708	-1.0411832919158246	-0.8011534840419143	0.8879759549991785	-1.0357439550311451	-0.8977132265674926	0.9196942575314817	-1.008018915076095	-1.0515950114214203	0.9509377051482946	-1.1185058743932053	-0.8780290878778825	0.9421652330565369	-1.3567009730486768	-0.8897362066179209	0.9201086969000326	-1.12382971959484	-0.7892264949917759	0.9118958009553495	-1.057854927683804	-0.8129585116627405	0.8921034324055862	-1.0617359609823116	-0.9115523275253121	0.9267522905900778	-1.0792486226414362	-1.0739037223706094	1.3600620003058088	-1.0465209110992624	-1.0380283980382534	1.5178034091116546	-1.0582008228955666	-0.9873486535866762	1.4235303076532282	-1.0442606033298616	-1.0937428807633314	1.304353481102022	-0.9238481395877574	-1.0403255343626792	1.1290476360115291	-0.8368926637381304	-0.8839501348145012	1.0491358066417447	-0.91862457716686	-1.0808865459937287	1.3083272546784586	-1.1782401309233925	-1.0444138704441706	1.1359549817107493	-1.2645888177265876	-0.9058287431124709	1.073290977584633	-1.1368962237938218
6	0.1	-1.0510514917606315	0.9536679234195335	-0.9743196895149716	-0.8758723640544419	0.9430315889959204	-0.7312208008995545	-0.877915722805957	0.9177597883240258	-0.9651554654315144	-0.7801840713140631	0.9124688561614451	-1.0417694352955489	-0.8028817235470497	0.8920118656208037	-1.036257158015771	-0.8992613285169296	0.9237435018649995	-1.0079353560211506	-1.051599670402456	0.9542814697565516	-1.118500836502931	-0.8780318004278087	0.9455076476287283	-1.3566929439909319	-0.8897402402304255	0.9234517103193814	-1.1238216611347394	-0.7892307365335708	0.9152385840751808	-1.057844455961924	-0.8129627678339428	0.8954461255581001	-1.0617260385769052	-0.9115566799788831	0.9300955122805779	-1.079240797472833	-1.0761206182795304	1.3628840452614521	-1.047997768232471	-1.0380444949004723	1.5211407995445114	-1.0582082035051494	-0.9872011667889813	1.426914702955983	-1.044128195055292	-1.0957935483627042	1.3072645325372587	-0.925336960311868	-1.0400918907220962	1.1313680053995225	-0.838934245748861	-0.8824840679774162	1.0534619372450589	-0.9202394371979593	-1.08089260369466	1.311673927875956	-1.1782298868842027	-1.0444183983100332	1.1392997134938063	-1.2645807169144527	-0.906066116705636	1.0785801913907302	-1.1354875882620763
7	0.1166666666666666	-1.0510566367610912	0.9568986245564275	-0.9743146500564758	-0.8758787138160917	0.9462615507018703	-0.7312098979594774	-0.8792004040882537	0.9215590487130487	-0.9651860709887943	-0.7818685925628672	0.916365451032432	-1.0423245897579505	-0.804553426311656	0.8959135013264795	-1.036741895683809	-0.9007558004085926	0.9276564728643051	-1.0078444883765272	-1.0516041765301245	0.9575118608227	-1.1184959439398472	-0.8780344226898497	0.9487367314483031	-1.3566851508045514	-0.8897441381178576	0.9266813738861143	-1.1238138615329674	-0.7892348332422248	0.9184680242480601	-1.0578343364856355	-0.8129668784789824	0.8986754789677586	-1.0617164487743234	-0.9115608864712065	0.9333253774207416	-1.0792332255113217	-1.0793045033019504	1.3653618679247013	-1.0501262902354307	-1.0380600409042395	1.5243650125302441	-1.058215292885711	-0.9870205897055677	1.4301934413529631	-1.0439702449600674	-1.0968882504406143	1.310262641870268	-0.9261313328984272	-1.0398701238322692	1.1336332574457777	-0.8409166771247305	-0.8810912630750023	1.0576484077310615	-0.9217614997404453	-1.0808984802922126	1.3149071289635885	-1.1782199119999113	-1.0444227868411797	1.1425310380302542	-1.264572829443018	-0.9063157629106202	1.083700226344529	-1.1341449616959347
8	0.1333333333333333	-1.0510615775424759	0.9599983864345599	-0.9743098037972694	-0.8758848073263467	0.9493606003976534	-0.7311994531458127	-0.880432649007124	0.9252053704130544	-0.9652074116498879	-0.7834870638681064	0.9201066435892254	-1.042846919610608	-0.8061592379140733	0.8996593649774249	-1.037196711563951	-0.9021886007967856	0.9314117782146066	-1.0077479009219943	-1.0516085048765502	0.9606113245867053	-1.1184912257975101	-0.8780369403408301	0.951834938177543	-1.356677639524651	-0.8897478790818074	0.9297801379865921	-1.1238063645708456	-0.7892387630479756	0.9215665731740821	-1.0578246244714582	-0.8129708214736631	0.9017739447894686	-1.06170724401349	-0.9115649240649417	0.9364243352632629	-1.0792259490615526	-1.0829033722725554	1.3676086327676469	-1.0525359599161224	-1.0380749521620383	1.5274585300329742	-1.0582220566326992	-0.9868824256166948	1.4333310029223287	-1.0438460917420154	-1.0972971489529215	1.313273817840594	-0.9264272960786275	-1.0396610331878584	1.135828587966178	-0.8428278842916829	-0.87977684724224	1.061670820058487	-0.9231867141040506	-1.0809041413990836	1.3180092888959016	-1.178210268511591	-1.0444270108028642	1.1456313965799811	-1.2645652044321756	-0.9065741072770843	1.0886219444381557	-1.1328738323872094
